<svg xmlns="http://www.w3.org/2000/svg" xmlns:xlink="http://www.w3.org/1999/xlink" width="1920" zoomAndPan="magnify" viewBox="0 0 1440 809.999993" height="1080" preserveAspectRatio="xMidYMid meet" version="1.0"><defs><g/><clipPath id="a6790d8626"><path d="M 149.410156 19 L 512 19 L 512 443 L 149.410156 443 Z M 149.410156 19 " clip-rule="nonzero"/></clipPath><clipPath id="63463ba5c6"><path d="M 934 19 L 1297.042969 19 L 1297.042969 443 L 934 443 Z M 934 19 " clip-rule="nonzero"/></clipPath><clipPath id="8550d404d2"><path d="M 527.199219 0.371094 L 919 0.371094 L 919 531.984375 L 527.199219 531.984375 Z M 527.199219 0.371094 " clip-rule="nonzero"/></clipPath></defs><g clip-path="url(#a6790d8626)"><path fill="#211d1d" d="M 166.019531 204.085938 L 466.523438 23.589844 C 471.046875 21.074219 476.082031 19.8125 481.621094 19.8125 C 489.925781 19.8125 497.03125 22.769531 502.945312 28.683594 C 508.863281 34.601562 511.820312 41.710938 511.820312 50.023438 C 511.820312 60.847656 506.660156 69.660156 496.339844 76.453125 L 238.125 231.273438 L 496.339844 386.085938 C 506.660156 392.882812 511.820312 401.691406 511.820312 412.515625 C 511.820312 420.832031 508.863281 427.933594 502.945312 433.855469 C 497.03125 439.769531 489.925781 442.722656 481.621094 442.722656 C 476.082031 442.722656 471.046875 441.46875 466.523438 438.953125 L 166.019531 258.453125 C 154.945312 251.40625 149.410156 242.34375 149.410156 231.273438 C 149.410156 220.191406 154.945312 211.128906 166.019531 204.085938 " fill-opacity="1" fill-rule="nonzero"/></g><g clip-path="url(#63463ba5c6)"><path fill="#211d1d" d="M 1297.042969 231.273438 C 1297.042969 242.34375 1291.507812 251.40625 1280.429688 258.453125 L 979.925781 438.953125 C 975.402344 441.46875 970.371094 442.722656 964.832031 442.722656 C 956.523438 442.722656 949.417969 439.769531 943.503906 433.855469 C 937.589844 427.933594 934.632812 420.832031 934.632812 412.515625 C 934.632812 401.691406 939.789062 392.882812 950.109375 386.085938 L 1208.324219 231.273438 L 950.109375 76.453125 C 939.789062 69.660156 934.632812 60.847656 934.632812 50.023438 C 934.632812 41.710938 937.589844 34.601562 943.503906 28.683594 C 949.417969 22.769531 956.523438 19.8125 964.832031 19.8125 C 970.371094 19.8125 975.402344 21.074219 979.925781 23.589844 L 1280.429688 204.085938 C 1291.507812 211.128906 1297.042969 220.191406 1297.042969 231.273438 " fill-opacity="1" fill-rule="nonzero"/></g><g clip-path="url(#8550d404d2)"><path fill="#67c656" d="M 871.007812 218.125 C 836.695312 277.632812 760.636719 298.019531 701.132812 263.652344 C 641.625 229.289062 621.246094 153.214844 655.601562 93.695312 C 689.96875 34.210938 766.023438 13.828125 825.484375 48.164062 C 884.988281 82.527344 905.367188 158.605469 871.007812 218.125 Z M 841.03125 21.226562 C 840.980469 21.199219 840.941406 21.207031 840.882812 21.140625 C 766.554688 -21.683594 671.582031 3.855469 628.671875 78.140625 C 588.492188 147.800781 608.273438 235.550781 671.902344 281.699219 L 643.175781 331.464844 L 632.285156 325.175781 C 630.097656 323.882812 627.246094 324.644531 626 326.863281 L 528.285156 496.203125 C 526.988281 498.390625 527.753906 501.242188 529.933594 502.5 L 579.933594 531.375 C 582.113281 532.632812 584.960938 531.867188 586.257812 529.679688 L 683.96875 360.339844 C 685.21875 358.121094 684.464844 355.3125 682.277344 354.011719 L 671.382812 347.722656 L 693.105469 310.089844 L 700.070312 297.96875 C 771.894531 330.035156 857.792969 303.289062 897.941406 233.675781 C 940.871094 159.300781 915.402344 64.203125 841.03125 21.226562 " fill-opacity="1" fill-rule="nonzero"/></g><path fill="#67c656" d="M 789.222656 49.425781 C 731.699219 60.222656 684.003906 96.480469 657.230469 145.398438 C 662.9375 93.464844 705.007812 51.371094 758.980469 47.4375 C 769.363281 46.679688 779.515625 47.421875 789.222656 49.425781 " fill-opacity="1" fill-rule="nonzero"/><g fill="#211d1d" fill-opacity="1"><g transform="translate(295.051367, 695.789063)"><g><path d="M 45.140625 -104.171875 C 50.679688 -104.171875 56.097656 -103.363281 61.390625 -101.75 C 66.679688 -100.144531 70.609375 -98.554688 73.171875 -96.984375 L 76.890625 -94.5 L 67.46875 -75.890625 C 66.71875 -76.390625 65.679688 -77.03125 64.359375 -77.8125 C 63.035156 -78.601562 60.554688 -79.660156 56.921875 -80.984375 C 53.285156 -82.304688 49.894531 -82.96875 46.75 -82.96875 C 42.863281 -82.96875 39.863281 -82.140625 37.75 -80.484375 C 35.644531 -78.828125 34.59375 -76.597656 34.59375 -73.796875 C 34.59375 -72.390625 35.085938 -71.082031 36.078125 -69.875 C 37.078125 -68.675781 38.773438 -67.394531 41.171875 -66.03125 C 43.566406 -64.664062 45.671875 -63.570312 47.484375 -62.75 C 49.304688 -61.925781 52.125 -60.6875 55.9375 -59.03125 C 62.550781 -56.21875 68.191406 -52.394531 72.859375 -47.5625 C 77.523438 -42.726562 79.859375 -37.25 79.859375 -31.125 C 79.859375 -25.257812 78.804688 -20.132812 76.703125 -15.75 C 74.597656 -11.363281 71.703125 -7.929688 68.015625 -5.453125 C 64.335938 -2.972656 60.265625 -1.132812 55.796875 0.0625 C 51.335938 1.257812 46.503906 1.859375 41.296875 1.859375 C 36.828125 1.859375 32.441406 1.398438 28.140625 0.484375 C 23.847656 -0.421875 20.253906 -1.550781 17.359375 -2.90625 C 14.460938 -4.269531 11.859375 -5.613281 9.546875 -6.9375 C 7.234375 -8.257812 5.539062 -9.378906 4.46875 -10.296875 L 2.859375 -11.65625 L 14.515625 -31.25 C 15.503906 -30.425781 16.863281 -29.375 18.59375 -28.09375 C 20.332031 -26.8125 23.410156 -25.09375 27.828125 -22.9375 C 32.253906 -20.789062 36.164062 -19.71875 39.5625 -19.71875 C 49.394531 -19.71875 54.3125 -23.066406 54.3125 -29.765625 C 54.3125 -31.171875 53.957031 -32.472656 53.25 -33.671875 C 52.550781 -34.867188 51.3125 -36.066406 49.53125 -37.265625 C 47.757812 -38.460938 46.191406 -39.410156 44.828125 -40.109375 C 43.460938 -40.816406 41.226562 -41.894531 38.125 -43.34375 C 35.03125 -44.789062 32.738281 -45.882812 31.25 -46.625 C 25.050781 -49.6875 20.253906 -53.507812 16.859375 -58.09375 C 13.472656 -62.6875 11.78125 -67.628906 11.78125 -72.921875 C 11.78125 -82.097656 15.171875 -89.597656 21.953125 -95.421875 C 28.734375 -101.253906 36.460938 -104.171875 45.140625 -104.171875 Z M 45.140625 -104.171875 "/></g></g></g><g fill="#211d1d" fill-opacity="1"><g transform="translate(394.48238, 695.789063)"><g><path d="M 65.96875 -102.3125 L 65.96875 -81.84375 L 30.75 -81.84375 L 30.75 -61.515625 L 64.484375 -61.515625 L 64.484375 -41.046875 L 30.75 -41.046875 L 30.75 -20.46875 L 65.96875 -20.46875 L 65.96875 0 L 7.4375 0 L 7.4375 -102.3125 Z M 65.96875 -102.3125 "/></g></g></g><g fill="#211d1d" fill-opacity="1"><g transform="translate(482.508518, 695.789063)"><g><path d="M 30.75 -102.3125 L 30.75 -20.46875 L 65.96875 -20.46875 L 65.96875 0 L 7.4375 0 L 7.4375 -102.3125 Z M 30.75 -102.3125 "/></g></g></g><g fill="#211d1d" fill-opacity="1"><g transform="translate(568.675182, 695.789063)"><g><path d="M 66.59375 -102.3125 L 66.59375 -81.84375 L 30.75 -81.84375 L 30.75 -61.515625 L 63.875 -61.515625 L 63.875 -41.046875 L 30.75 -41.046875 L 30.75 0 L 7.4375 0 L 7.4375 -102.3125 Z M 66.59375 -102.3125 "/></g></g></g><g fill="#67c656" fill-opacity="1"><g transform="translate(655.105426, 695.789063)"><g><path d="M 45.140625 -104.171875 C 50.679688 -104.171875 56.097656 -103.363281 61.390625 -101.75 C 66.679688 -100.144531 70.609375 -98.554688 73.171875 -96.984375 L 76.890625 -94.5 L 67.46875 -75.890625 C 66.71875 -76.390625 65.679688 -77.03125 64.359375 -77.8125 C 63.035156 -78.601562 60.554688 -79.660156 56.921875 -80.984375 C 53.285156 -82.304688 49.894531 -82.96875 46.75 -82.96875 C 42.863281 -82.96875 39.863281 -82.140625 37.75 -80.484375 C 35.644531 -78.828125 34.59375 -76.597656 34.59375 -73.796875 C 34.59375 -72.390625 35.085938 -71.082031 36.078125 -69.875 C 37.078125 -68.675781 38.773438 -67.394531 41.171875 -66.03125 C 43.566406 -64.664062 45.671875 -63.570312 47.484375 -62.75 C 49.304688 -61.925781 52.125 -60.6875 55.9375 -59.03125 C 62.550781 -56.21875 68.191406 -52.394531 72.859375 -47.5625 C 77.523438 -42.726562 79.859375 -37.25 79.859375 -31.125 C 79.859375 -25.257812 78.804688 -20.132812 76.703125 -15.75 C 74.597656 -11.363281 71.703125 -7.929688 68.015625 -5.453125 C 64.335938 -2.972656 60.265625 -1.132812 55.796875 0.0625 C 51.335938 1.257812 46.503906 1.859375 41.296875 1.859375 C 36.828125 1.859375 32.441406 1.398438 28.140625 0.484375 C 23.847656 -0.421875 20.253906 -1.550781 17.359375 -2.90625 C 14.460938 -4.269531 11.859375 -5.613281 9.546875 -6.9375 C 7.234375 -8.257812 5.539062 -9.378906 4.46875 -10.296875 L 2.859375 -11.65625 L 14.515625 -31.25 C 15.503906 -30.425781 16.863281 -29.375 18.59375 -28.09375 C 20.332031 -26.8125 23.410156 -25.09375 27.828125 -22.9375 C 32.253906 -20.789062 36.164062 -19.71875 39.5625 -19.71875 C 49.394531 -19.71875 54.3125 -23.066406 54.3125 -29.765625 C 54.3125 -31.171875 53.957031 -32.472656 53.25 -33.671875 C 52.550781 -34.867188 51.3125 -36.066406 49.53125 -37.265625 C 47.757812 -38.460938 46.191406 -39.410156 44.828125 -40.109375 C 43.460938 -40.816406 41.226562 -41.894531 38.125 -43.34375 C 35.03125 -44.789062 32.738281 -45.882812 31.25 -46.625 C 25.050781 -49.6875 20.253906 -53.507812 16.859375 -58.09375 C 13.472656 -62.6875 11.78125 -67.628906 11.78125 -72.921875 C 11.78125 -82.097656 15.171875 -89.597656 21.953125 -95.421875 C 28.734375 -101.253906 36.460938 -104.171875 45.140625 -104.171875 Z M 45.140625 -104.171875 "/></g></g></g><g fill="#67c656" fill-opacity="1"><g transform="translate(754.536439, 695.789063)"><g><path d="M 0.984375 -81.84375 L 0.984375 -102.3125 L 72.921875 -102.3125 L 72.921875 -81.84375 L 48.609375 -81.84375 L 48.609375 0 L 25.296875 0 L 25.296875 -81.84375 Z M 0.984375 -81.84375 "/></g></g></g><g fill="#67c656" fill-opacity="1"><g transform="translate(844.546004, 695.789063)"><g><path d="M 86.0625 -102.3125 L 86.0625 -36.34375 C 86.0625 -23.769531 82.671875 -14.257812 75.890625 -7.8125 C 69.117188 -1.363281 59.203125 1.859375 46.140625 1.859375 C 33.078125 1.859375 23.15625 -1.363281 16.375 -7.8125 C 9.59375 -14.257812 6.203125 -23.769531 6.203125 -36.34375 L 6.203125 -102.3125 L 29.515625 -102.3125 L 29.515625 -43.15625 C 29.515625 -34.882812 30.816406 -29.132812 33.421875 -25.90625 C 36.023438 -22.6875 40.257812 -21.078125 46.125 -21.078125 C 52 -21.078125 56.238281 -22.6875 58.84375 -25.90625 C 61.445312 -29.132812 62.75 -34.882812 62.75 -43.15625 L 62.75 -102.3125 Z M 86.0625 -102.3125 "/></g></g></g><g fill="#67c656" fill-opacity="1"><g transform="translate(952.902597, 695.789063)"><g><path d="M 7.4375 -102.3125 L 37.078125 -102.3125 C 51.296875 -102.3125 63.445312 -97.453125 73.53125 -87.734375 C 83.625 -78.023438 88.671875 -65.851562 88.671875 -51.21875 C 88.671875 -36.5 83.644531 -24.28125 73.59375 -14.5625 C 63.550781 -4.851562 51.378906 0 37.078125 0 L 7.4375 0 Z M 30.75 -20.828125 L 34.359375 -20.828125 C 42.867188 -20.828125 49.832031 -23.703125 55.25 -29.453125 C 60.664062 -35.203125 63.414062 -42.414062 63.5 -51.09375 C 63.5 -59.769531 60.789062 -67.003906 55.375 -72.796875 C 49.957031 -78.585938 42.953125 -81.484375 34.359375 -81.484375 L 30.75 -81.484375 Z M 30.75 -20.828125 "/></g></g></g><g fill="#67c656" fill-opacity="1"><g transform="translate(1060.515352, 695.789063)"><g><path d="M -3.71875 -102.3125 L 24.3125 -102.3125 L 45.640625 -69.578125 L 66.96875 -102.3125 L 95 -102.3125 L 57.296875 -45.890625 L 57.296875 0 L 33.984375 0 L 33.984375 -45.890625 Z M -3.71875 -102.3125 "/></g></g></g><g fill="#737373" fill-opacity="1"><g transform="translate(445.935543, 786.698341)"><g><path d="M 8.515625 -31.296875 L 8.515625 0 L 2.40625 0 L 2.40625 -43.21875 L 10.921875 -43.21875 L 17.90625 -17.34375 L 17.90625 -43.21875 L 23.953125 -43.21875 L 23.953125 0 L 16.984375 0 Z M 8.515625 -31.296875 "/></g></g></g><g fill="#737373" fill-opacity="1"><g transform="translate(496.995672, 786.698341)"><g><path d="M 9.265625 0 L 2.46875 0 L 2.46875 -43.21875 L 9.265625 -43.21875 L 9.265625 -24.6875 L 16.984375 -24.6875 L 16.984375 -43.21875 L 23.890625 -43.21875 L 23.890625 0 L 16.984375 0 L 16.984375 -18.515625 L 9.265625 -18.515625 Z M 9.265625 0 "/></g></g></g><g fill="#737373" fill-opacity="1"><g transform="translate(548.055801, 786.698341)"><g><path d="M 24.453125 0 L 17.59375 0 L 16.421875 -7.84375 L 8.09375 -7.84375 L 6.921875 0 L 0.671875 0 L 7.59375 -43.21875 L 17.53125 -43.21875 Z M 8.953125 -13.703125 L 15.5 -13.703125 L 12.21875 -35.5625 Z M 8.953125 -13.703125 "/></g></g></g><g fill="#737373" fill-opacity="1"><g transform="translate(597.881542, 786.698341)"><g><path d="M 0.5 -43.21875 L 21.484375 -43.21875 L 21.484375 -37.046875 L 14.390625 -37.046875 L 14.390625 0 L 7.59375 0 L 7.59375 -37.046875 L 0.5 -37.046875 Z M 0.5 -43.21875 "/></g></g></g><g fill="#737373" fill-opacity="1"><g transform="translate(644.559597, 786.698341)"><g/></g></g><g fill="#737373" fill-opacity="1"><g transform="translate(678.831903, 786.698341)"><g><path d="M 0.5 -43.21875 L 21.484375 -43.21875 L 21.484375 -37.046875 L 14.390625 -37.046875 L 14.390625 0 L 7.59375 0 L 7.59375 -37.046875 L 0.5 -37.046875 Z M 0.5 -43.21875 "/></g></g></g><g fill="#737373" fill-opacity="1"><g transform="translate(725.509958, 786.698341)"><g><path d="M 9.265625 0 L 2.46875 0 L 2.46875 -43.21875 L 9.265625 -43.21875 L 9.265625 -24.6875 L 16.984375 -24.6875 L 16.984375 -43.21875 L 23.890625 -43.21875 L 23.890625 0 L 16.984375 0 L 16.984375 -18.515625 L 9.265625 -18.515625 Z M 9.265625 0 "/></g></g></g><g fill="#737373" fill-opacity="1"><g transform="translate(776.570095, 786.698341)"><g><path d="M 24.453125 0 L 17.59375 0 L 16.421875 -7.84375 L 8.09375 -7.84375 L 6.921875 0 L 0.671875 0 L 7.59375 -43.21875 L 17.53125 -43.21875 Z M 8.953125 -13.703125 L 15.5 -13.703125 L 12.21875 -35.5625 Z M 8.953125 -13.703125 "/></g></g></g><g fill="#737373" fill-opacity="1"><g transform="translate(826.395852, 786.698341)"><g><path d="M 2.46875 -43.21875 L 9.265625 -43.21875 L 9.265625 0 L 2.46875 0 Z M 2.46875 -43.21875 "/></g></g></g><g fill="#737373" fill-opacity="1"><g transform="translate(862.828356, 786.698341)"><g/></g></g><g fill="#737373" fill-opacity="1"><g transform="translate(897.100662, 786.698341)"><g><path d="M 9.015625 -6.546875 L 9.015625 0 L 2.46875 0 L 2.46875 -6.546875 Z M 9.015625 -6.546875 "/></g></g></g><g fill="#737373" fill-opacity="1"><g transform="translate(933.28629, 786.698341)"><g><path d="M 0.5 -43.21875 L 21.484375 -43.21875 L 21.484375 -37.046875 L 14.390625 -37.046875 L 14.390625 0 L 7.59375 0 L 7.59375 -37.046875 L 0.5 -37.046875 Z M 0.5 -43.21875 "/></g></g></g><g fill="#737373" fill-opacity="1"><g transform="translate(979.964345, 786.698341)"><g><path d="M 2.46875 -43.21875 L 9.265625 -43.21875 L 9.265625 -6.171875 L 20.4375 -6.171875 L 20.4375 0 L 2.46875 0 Z M 2.46875 -43.21875 "/></g></g></g></svg>